<svg xmlns="http://www.w3.org/2000/svg" id="Layer_1" enable-background="new 0 0 67 67" viewBox="0 0 67 67"><path fill="#394a39" d="M62.1 48.6C62 48.6 62 48.6 62.1 48.6c-.3 0-.4-.2-.4-.5l1.8-14.2c0-.2.2-.4.5-.4.2 0 .4.2.4.5l-1.8 14.2C62.4 48.4 62.3 48.6 62.1 48.6zM6.6 45.8c-.2 0-.4-.2-.4-.4l-.2-12c0-.2.2-.4.4-.4 0 0 0 0 0 0 .2 0 .4.2.4.4l.2 12C7 45.6 6.8 45.8 6.6 45.8 6.6 45.8 6.6 45.8 6.6 45.8z"/><path fill="#ffd347" d="M33.7,2.4c0,0-19.4,9.6-28.7,31.7c-0.2,0.5,0.3,1,0.8,0.8C9,33.3,18,30.3,33.7,34.8
						C33.7,34.8,25.9,16.5,33.7,2.4z M6.3,33.8c-0.2,0-0.3-0.1-0.3-0.3c0-0.2,0.1-0.3,0.3-0.3c0.2,0,0.3,0.1,0.3,0.3
						C6.6,33.6,6.5,33.8,6.3,33.8z"/><path fill="#ffc447" d="M33.7,2.4c-0.2,0.1-2.3,1.1-5.3,3.2c-0.9,3.5-1.1,7.1-1,10.4c0.4,7.3-5.5,13.2-12.8,13.4
						c-3.3,0.1-6,0.5-8,1.1C6,31.7,5.5,32.9,5,34.1c-0.2,0.5,0.3,1,0.8,0.8C9,33.3,18,30.3,33.7,34.8C33.7,34.8,25.9,16.6,33.7,2.4z
						 M6.3,33.8c-0.2,0-0.3-0.1-0.3-0.3c0-0.2,0.1-0.3,0.3-0.3s0.3,0.1,0.3,0.3C6.6,33.6,6.5,33.8,6.3,33.8z"/><path fill="#394a39" d="M3.4,45.2C3.4,45.2,3.4,45.2,3.4,45.2C3.2,45.2,3,45,3,44.7c0.6-7,2.9-11.3,3-11.5C6.1,33,6.3,33,6.5,33.1
						c0.2,0.1,0.3,0.4,0.2,0.6c0,0-2.3,4.4-2.9,11.2C3.8,45,3.6,45.2,3.4,45.2z"/><path fill="#ffd347" d="M35.5,2.4L35.5,2.4c-4.3,11.6-5.1,22.5-0.1,32.4c9.4-1,19-1.1,28.9-0.2c0.5,0,0.8-0.6,0.4-0.9
						C52.5,24.1,43,13.6,35.5,2.4z M63.9,34.3c-0.2,0-0.3-0.1-0.3-0.3c0-0.2,0.1-0.3,0.3-0.3c0.2,0,0.3,0.1,0.3,0.3
						C64.2,34.1,64.1,34.3,63.9,34.3z"/><path fill="#ffc447" d="M64.7,33.7c-0.8-0.7-1.7-1.3-2.5-2c-4.5-0.3-8.9-0.4-13.3-0.3c-7.9,0.2-14.6-6.2-14.6-14.1
						c0-4.3,0.8-8.8,2.1-13.4c-0.3-0.5-0.7-1-1-1.5h-0.1c-4.2,11.6-5,22.5,0,32.4c9.4-1.1,19-1.1,28.9-0.2
						C64.8,34.7,65.1,34,64.7,33.7z M63.9,34.3c-0.2,0-0.3-0.1-0.3-0.3c0-0.2,0.1-0.3,0.3-0.3c0.2,0,0.3,0.1,0.3,0.3
						C64.2,34.1,64.1,34.3,63.9,34.3z"/><path fill="#4f6555" d="M35.5,2.4v47.7h-1.8V2.4c0-0.5,0.4-0.9,0.9-0.9C35.1,1.5,35.5,1.9,35.5,2.4z"/><path fill="#607264" d="M35.5,2.4V16c0-0.5-0.4-0.9-0.9-0.9c-0.5,0-0.9,0.4-0.9,0.9V2.4c0-0.5,0.4-0.9,0.9-0.9
						C35.1,1.5,35.5,1.9,35.5,2.4z"/><path fill="#86967d" d="M50.8,42.9v-5.5c0-0.4-0.3-0.7-0.7-0.7H33.7c-0.4,0-0.7,0.3-0.7,0.7v5.5H50.8z"/><path fill="#607264" d="M50.1,36.8h-0.8l0,0c0,1.1-0.9,2-2,2H33v4.2h17.8v-5.5C50.8,37.1,50.5,36.8,50.1,36.8z"/><path fill="#eae4dd" d="M56.1,40.4v8.4H23.9l6.2-9.1c0.2-0.3,0.6-0.5,1-0.5h23.8C55.5,39.2,56.1,39.7,56.1,40.4z"/><path fill="#dfd9d2" d="M56.1,40.4v8.4H23.9l1.1-1.6h22.6c3.5,0,6.3-2.8,6.3-6.3v-1.7h1C55.5,39.2,56.1,39.8,56.1,40.4z"/><polygon fill="#51a3f1" points="35.4 41.4 31.6 41.4 29.5 44.5 35.4 44.5"/><rect width="6.9" height="3.1" x="36.4" y="41.4" fill="#51a3f1"/><rect width="4.7" height="3.1" x="43.9" y="41.4" fill="#51a3f1"/><rect width="4.4" height="3.1" x="49.5" y="41.4" fill="#51a3f1"/><path fill="#4087f1" d="M35.4 41.4V42h-2.3c-.6 0-1.2.3-1.5.8l-1.1 1.6h-.9l2.1-3.1H35.4zM43.4 41.4V42h-4.8c-.9 0-1.7.7-1.7 1.7v.8h-.5v-3.1H43.4zM48.7 41.4V42h-2.1c-1.2 0-2.1 1-2.1 2.1v.3h-.5v-3.1H48.7zM53.9 41.4V42h-1.7C51 42 50 43 50 44.2v.3h-.5v-3.1H53.9z"/><path fill="#b66f2e" d="M65,48l-7.1,11c-1,1.5-2.7,2.5-4.5,2.5H17.1c-1.8,0-3.4-0.9-4.4-2.3L2.3,44.5C19.9,47.8,47.5,49,65,48z"/><path fill="#ce8142" d="M36.5,54.6L8,52.6l4.7,6.6c1,1.4,2.7,2.3,4.4,2.3H43v0C43,57.9,40.1,54.8,36.5,54.6z"/><path fill="#996029" d="M2.3,44.5l2.6,3.7l44.5,2.7c4.6,0.3,8.2,4.1,8.2,8.7v0c0,0,0,0,0,0L65,48C47.5,49,19.9,47.8,2.3,44.5z"/><path fill="#f7a669" d="M65.5,48c0,0.2-0.2,0.5-0.4,0.5c-17.7,1-45.5-0.2-62.9-3.4h0c-0.5-0.1-0.8-0.5-0.7-1
						c0.1-0.5,0.5-0.8,1-0.7c0,0,0,0,0,0c17.2,3.5,44.9,4.9,62.5,4.2h0C65.3,47.6,65.5,47.8,65.5,48z"/><g><path fill="#ec9140" d="M65,47.6L65,47.6c-4,0.2-8.5,0.2-13.2,0.2v1.1c4.8,0,9.3-0.1,13.3-0.3c0.3,0,0.4-0.2,0.4-0.5
						C65.5,47.8,65.3,47.6,65,47.6z"/></g><g><path fill="#394a39" d="M64.3,48.6c-0.2,0-0.4-0.2-0.4-0.4L63.5,34c0-0.2,0.2-0.4,0.4-0.4c0,0,0,0,0,0c0.2,0,0.4,0.2,0.4,0.4
						l0.5,14.2C64.8,48.4,64.6,48.6,64.3,48.6C64.4,48.6,64.4,48.6,64.3,48.6z"/></g><path fill="#fffbf4" d="M39 40.1c0 .2-.2.4-.4.4H32c-.2 0-.4-.2-.4-.4 0-.2.2-.4.4-.4h6.5C38.8 39.7 39 39.9 39 40.1zM43.2 40.1c0 .2-.2.4-.4.4h-2.3c-.2 0-.4-.2-.4-.4 0-.2.2-.4.4-.4h2.3C43 39.7 43.2 39.9 43.2 40.1z"/><g><path fill="#fff25d" d="M11.7,27.5c-0.1,0-0.2,0-0.3-0.1c-0.3-0.2-0.4-0.6-0.2-0.9c1.8-3,4-5.9,6.3-8.5c0.2-0.3,0.7-0.3,0.9-0.1
					c0.3,0.2,0.3,0.7,0.1,0.9c-2.3,2.6-4.4,5.4-6.2,8.4C12.2,27.4,12,27.5,11.7,27.5z"/></g><g><path fill="#fff25d" d="M21.5,15.5c-0.2,0-0.3-0.1-0.5-0.2c-0.3-0.3-0.2-0.7,0-0.9c1-1,2.1-2,3.2-2.9c0.3-0.2,0.7-0.2,0.9,0.1
					c0.2,0.3,0.2,0.7-0.1,0.9c-1.1,0.9-2.1,1.8-3.1,2.8C21.8,15.4,21.6,15.5,21.5,15.5z"/></g><g><path fill="#51a3f1" d="M65.5,62.8c0,1.5-1.2,2.7-2.6,2.7H4.1c-0.7,0-1.4-0.3-1.9-0.8c-0.5-0.5-0.8-1.1-0.8-1.9
					c0-1.5,1.2-2.6,2.6-2.6h58.7c0.7,0,1.4,0.3,1.9,0.8C65.2,61.5,65.5,62.1,65.5,62.8z"/><path fill="#4087f1" d="M65.5,62.8c0,1.5-1.2,2.7-2.6,2.7H51.1c1.5,0,2.7-1.2,2.7-2.7c0-0.7-0.3-1.4-0.8-1.9
					c-0.5-0.5-1.1-0.8-1.9-0.8h11.7c0.7,0,1.4,0.3,1.9,0.8C65.2,61.5,65.5,62.1,65.5,62.8z"/><path fill="#7dc4ff" d="M60.5,61.5c0,0.7-0.6,1.3-1.3,1.3H7.9c-0.7,0-1.3-0.6-1.3-1.3c0-0.7,0.6-1.3,1.3-1.3h51.3
					C59.9,60.2,60.5,60.8,60.5,61.5z"/><path fill="#51a3f1" d="M60.5,61.5c0,0.7-0.6,1.3-1.3,1.3h-6.2c0.7,0,1.3-0.6,1.3-1.3c0-0.7-0.6-1.3-1.3-1.3h6.2
					C59.9,60.2,60.5,60.8,60.5,61.5z"/></g></svg>